# xmcd
#
# Track frame offsets:
#	150
#	16918
#	43773
#	64079
#	88682
#	117685
#	140867
#
# Disc length: 2443 seconds
# Revision: 0
# Processed by: cddbd v1.5.2PL0 Copyright (c) Steve Scherf et al.
# Submitted via: dBpowerAMP V12.0
#
DISCID=65098907
DTITLE=Dżem - Zemsta Nietoperzy
DYEAR=1987
DGENRE=Blues
TTITLE0=Boże daj dom
TTITLE1=Uwierz Mirando
TTITLE2=Uśmiech śmierci
TTITLE3=Naiwne pytania
TTITLE4=Koszmarna noc
TTITLE5=Magazyn mód
TTITLE6=Klosz
EXTD=
EXTT0=
EXTT1=
EXTT2=
EXTT3=
EXTT4=
EXTT5=
EXTT6=
PLAYORDER=
